<mxfile host="app.diagrams.net" modified="2023-04-10T00:16:09.345Z" agent="Mozilla/5.0 (Windows NT 10.0; Win64; x64) AppleWebKit/537.36 (KHTML, like Gecko) Chrome/112.0.0.0 Safari/537.36 Edg/112.0.1722.34" version="21.1.5" etag="VX7DZhXkPMjI5dDdoXDJ" type="github">
  <diagram name="Page-1" id="oQhGoam7iq8ECAbFJKnj">
    <mxGraphModel>
      <root>
        <mxCell id="0" />
        <mxCell id="1" parent="0" />
      </root>
    </mxGraphModel>
  </diagram>
</mxfile>
